<svg id="visual" viewBox="0 0 900 600" width="900" height="600" xmlns="http://www.w3.org/2000/svg" xmlns:xlink="http://www.w3.org/1999/xlink" version="1.1"><rect x="0" y="0" width="900" height="600" fill="#FF0066"></rect><g transform="translate(450.8096967668262 300.6283064457328)"><path d="M138.6 -194.7C181.5 -159.5 219.6 -121.6 224.3 -79.5C228.9 -37.3 200 9.2 181.7 57C163.3 104.8 155.4 153.9 126.9 188.3C98.4 222.7 49.2 242.4 -4.8 249C-58.8 255.6 -117.6 249.1 -158.5 218.8C-199.3 188.4 -222.4 134.1 -225.9 82.9C-229.5 31.7 -213.7 -16.3 -187.5 -49.8C-161.3 -83.3 -124.7 -102.3 -91.8 -140.8C-58.8 -179.2 -29.4 -237.1 9.2 -249.8C47.8 -262.5 95.6 -229.9 138.6 -194.7" fill="#BB004B"></path></g></svg>