<svg id="visual" viewBox="0 0 900 600" width="900" height="600" xmlns="http://www.w3.org/2000/svg" xmlns:xlink="http://www.w3.org/1999/xlink" version="1.1"><g transform="translate(433.08363779673596 353.0915137637061)"><path d="M85.6 -168C109.6 -134.5 126.7 -108.7 159.9 -82C193.2 -55.3 242.6 -27.7 251.7 5.2C260.8 38.2 229.5 76.3 193.6 98.4C157.7 120.5 117.1 126.5 84.1 126.2C51 125.8 25.5 119.2 -3.4 125.1C-32.3 131 -64.7 149.5 -108 155.8C-151.3 162 -205.5 156 -217 128C-228.5 100 -197.3 50 -172.7 14.2C-148.2 -21.7 -130.4 -43.3 -126.8 -85C-123.2 -126.8 -133.9 -188.5 -115.1 -225C-96.3 -261.5 -48.2 -272.8 -8.7 -257.7C30.8 -242.7 61.7 -201.5 85.6 -168" fill="#BB004B"></path></g></svg>